<svg width="28" height="36" viewBox="0 0 28 36" fill="none" xmlns="http://www.w3.org/2000/svg">
<g id="Group 150">
<path id="Vector" d="M28.0001 9.75507V34.2821C28.0001 35.0518 27.4284 35.6757 26.7232 35.6757C26.018 35.6757 25.4463 35.0518 25.4463 34.2821V11.1486H22.8926V15.3294C22.8926 16.0991 22.3209 16.723 21.6157 16.723C20.9105 16.723 20.3388 16.0991 20.3388 15.3294V11.1486H8.08081V15.3294C8.08081 16.0991 7.50915 16.723 6.80393 16.723C6.09872 16.723 5.52706 16.0991 5.52706 15.3294V11.1486H2.97331V32.8885H26.7232C27.4284 32.8885 28.0001 33.5124 28.0001 34.2821C28.0001 35.0518 27.4284 35.6757 26.7232 35.6757H1.69643C0.991213 35.6757 0.419556 35.0518 0.419556 34.2821V9.75507C0.419556 8.98539 0.991213 8.36149 1.69643 8.36149H5.58745C6.09469 3.65975 9.76775 0 14.2098 0C18.6519 0 22.3249 3.65975 22.8322 8.36149H26.7232C27.4284 8.36149 28.0001 8.98539 28.0001 9.75507ZM20.2532 8.36149C19.7654 5.20189 17.2413 2.78716 14.2098 2.78716C11.1783 2.78716 8.65419 5.20189 8.16642 8.36149H20.2532Z" fill="white"/>
</g>
</svg>
